HIERARCHY
ROOT root
{
	OFFSET 0.000000 0.000000 0.000000
	CHANNELS 6 Xposition Yposition Zposition Zrotation Yrotation Xrotation
	JOINT lhip
	{
		OFFSET 0.058581 -0.082280 -0.017664
		CHANNELS 3 Zrotation Yrotation Xrotation
		JOINT lknee
		{
			OFFSET 0.043451 -0.386469 0.008037
			CHANNELS 3 Zrotation Yrotation Xrotation
			JOINT lankle
			{
				OFFSET -0.014790 -0.426874 -0.037428
				CHANNELS 3 Zrotation Yrotation Xrotation
				JOINT ltoe
				{
					OFFSET 0.041054 -0.060286 0.122042
					CHANNELS 3 Zrotation Yrotation Xrotation
					End Site
					{
						OFFSET 0.000000 0.000000 0.000000
					}
				}
			}
		}
	}
	JOINT rhip
	{
		OFFSET -0.060310 -0.090513 -0.013543
		CHANNELS 3 Zrotation Yrotation Xrotation
		JOINT rknee
		{
			OFFSET -0.043257 -0.383688 -0.004843
			CHANNELS 3 Zrotation Yrotation Xrotation
			JOINT rankle
			{
				OFFSET 0.019056 -0.420046 -0.034562
				CHANNELS 3 Zrotation Yrotation Xrotation
				JOINT rtoe
				{
					OFFSET -0.034840 -0.062106 0.130323
					CHANNELS 3 Zrotation Yrotation Xrotation
					End Site
					{
						OFFSET 0.000000 0.000000 0.000000
					}
				}
			}
		}
	}
	JOINT lowerback
	{
		OFFSET 0.004439 0.124404 -0.038385
		CHANNELS 3 Zrotation Yrotation Xrotation
		JOINT upperback
		{
			OFFSET 0.004488 0.137956 0.026820
			CHANNELS 3 Zrotation Yrotation Xrotation
			JOINT chest
			{
				OFFSET -0.002265 0.056032 0.002855
				CHANNELS 3 Zrotation Yrotation Xrotation
				JOINT lowerneck
				{
					OFFSET -0.013390 0.211636 -0.033468
					CHANNELS 3 Zrotation Yrotation Xrotation
					JOINT upperneck
					{
						OFFSET 0.010113 0.088937 0.050410
						CHANNELS 3 Zrotation Yrotation Xrotation
						End Site
						{
							OFFSET 0.000000 0.000000 0.000000
						}
					}
				}
				JOINT lclavicle
				{
					OFFSET 0.071702 0.114000 -0.018898
					CHANNELS 3 Zrotation Yrotation Xrotation
					JOINT lshoulder
					{
						OFFSET 0.122921 0.045205 -0.019046
						CHANNELS 3 Zrotation Yrotation Xrotation
						JOINT lelbow
						{
							OFFSET 0.255332 -0.015649 -0.022946
							CHANNELS 3 Zrotation Yrotation Xrotation
							JOINT lwrist
							{
								OFFSET 0.265709 0.012698 -0.007375
								CHANNELS 3 Zrotation Yrotation Xrotation
								End Site
								{
									OFFSET 0.000000 0.000000 0.000000
								}
							}
						}
					}
				}
				JOINT rclavicle
				{
					OFFSET -0.082954 0.112472 -0.023707
					CHANNELS 3 Zrotation Yrotation Xrotation
					JOINT rshoulder
					{
						OFFSET -0.113228 0.046853 -0.008472
						CHANNELS 3 Zrotation Yrotation Xrotation
						JOINT relbow
						{
							OFFSET -0.260127 -0.014369 -0.031269
							CHANNELS 3 Zrotation Yrotation Xrotation
							JOINT rwrist
							{
								OFFSET -0.269108 0.006794 -0.006027
								CHANNELS 3 Zrotation Yrotation Xrotation
								End Site
								{
									OFFSET 0.000000 0.000000 0.000000
								}
							}
						}
					}
				}
			}
		}
	}
}
MOTION
Frames: 17
Frame Time: 0.033333
-0.364996 0.326159 1.020544 -5.450865 0.632888 70.779199 7.252683 -6.823665 -45.636611 -0.219283 22.374128 109.094757 -0.734430 -3.169734 -23.394156 0.000000 -0.000000 0.000000 -0.829450 -0.494038 9.062287 -1.237996 5.415475 18.193406 5.313225 6.136617 -14.481231 0.000000 -0.000000 0.000000 0.881404 8.735122 24.945860 0.378630 -6.166181 6.150549 0.167894 -0.350541 0.268030 -3.402328 4.612503 19.362198 5.384416 19.656474 -0.879790 -27.728696 0.856992 9.176898 -65.145204 23.325291 8.840104 -44.231720 -49.681135 76.128583 -28.195777 -25.941307 16.695853 18.415806 2.705858 17.131368 62.223916 -20.777662 8.817274 37.251427 59.871503 68.689798 33.117121 16.965886 12.148992 
-0.373186 0.327571 1.024321 -3.453164 0.455609 71.333605 6.679058 -6.694314 -43.720436 0.170263 21.357768 106.195666 -0.642150 -1.131668 -23.120191 0.000000 -0.000000 0.000000 -0.937547 -1.015015 9.522215 -1.102848 4.852107 16.903715 6.034924 4.745181 -14.884693 0.000000 -0.000000 0.000000 0.361924 9.053506 24.783228 0.280482 -5.937905 5.533744 0.125923 -0.739767 0.899990 -3.159547 4.240871 19.928061 5.050072 19.447547 -1.401600 -26.924042 1.875110 10.529394 -64.689099 22.398012 8.990947 -45.477989 -49.624698 77.533092 -28.383316 -26.945931 15.410919 18.326498 2.486434 16.574443 62.549033 -21.152564 9.644648 36.327999 59.912185 67.066124 34.107193 18.423747 11.212596 
-0.379800 0.330087 1.024687 -1.574238 0.691165 71.994621 6.499745 -6.506670 -42.155285 0.408603 20.629160 103.479543 -0.567592 0.151008 -22.964629 0.000000 -0.000000 0.000000 -0.797516 -1.269786 9.175595 -1.027653 3.232352 16.822585 6.451366 4.252332 -15.768541 0.000000 -0.000000 0.000000 0.273252 8.912711 24.562521 0.209364 -5.701948 5.591605 0.223499 -0.716791 0.788668 -3.094745 4.033752 20.185544 4.811345 19.101212 -1.725112 -26.747545 2.281710 10.653782 -64.507797 22.786092 9.079782 -46.090393 -49.232636 78.493933 -28.763178 -26.928287 14.484747 18.114590 2.276653 16.560806 62.713441 -21.310509 9.556115 36.781334 59.566791 67.532329 34.036593 19.069171 10.402633 
-0.385805 0.333932 1.022552 1.920834 1.660176 72.205141 6.181366 -5.766185 -38.983089 0.457501 19.028008 97.635342 -0.731274 2.188474 -22.655183 0.000000 -0.000000 0.000000 -0.169329 -2.352976 8.108758 -1.075217 0.125706 19.184908 6.585571 3.999075 -18.526583 0.000000 -0.000000 0.000000 0.839487 7.988648 25.399640 0.280919 -5.548031 5.760831 0.714264 -0.827239 0.213502 -3.360395 3.812033 20.648804 4.267729 18.447185 -3.032640 -27.179430 2.429805 10.724471 -64.323722 23.811263 8.458418 -47.291575 -49.371190 80.108426 -30.116625 -26.647076 13.533403 17.935706 2.207155 16.733813 62.525542 -21.874659 8.568163 39.413456 58.967638 70.688137 32.233089 17.405547 10.362547 
-0.390877 0.338256 1.014560 5.254923 2.687442 71.806123 5.805074 -4.604614 -35.959888 0.706000 17.483138 90.287851 -0.492331 4.610588 -22.516454 0.000000 -0.000000 0.000000 0.898350 -2.880919 6.477908 -1.399284 -1.953066 23.799707 6.202391 1.963168 -21.424492 0.000000 -0.000000 0.000000 1.554868 6.359435 27.356834 0.239208 -5.096875 5.523467 1.073624 -1.016130 0.152880 -4.005241 2.700429 20.340227 3.741464 18.799672 -4.224276 -27.290522 2.381846 10.164560 -64.600898 24.530374 7.770048 -47.968236 -49.109682 81.448031 -31.305961 -26.939373 13.037098 17.433158 2.930570 16.364025 62.620296 -22.819023 7.856005 39.885121 59.227852 70.914491 33.989910 19.242651 12.066091 
-0.395233 0.345772 1.000412 9.197097 3.941644 71.156595 5.669000 -3.130124 -32.764825 1.778088 17.112103 78.277878 0.566935 6.674436 -22.862437 0.000000 -0.000000 0.000000 2.002479 -2.357032 3.637483 -2.555386 -6.170091 30.807650 5.059000 -0.350462 -23.717693 0.000000 -0.000000 0.000000 2.435457 3.989172 29.661848 0.205106 -4.521456 6.855888 1.758309 -0.869526 -0.813780 -4.844711 1.321364 19.499722 3.216156 18.475554 -5.348177 -28.364305 1.146614 9.009549 -65.107770 25.031176 7.324631 -46.542195 -48.707539 80.617478 -33.714092 -25.433967 15.287171 16.529024 3.531120 16.290429 63.755576 -23.156559 5.920468 39.676447 59.753149 70.899056 37.022966 19.766084 14.673764 
-0.399825 0.355371 0.979841 13.044940 5.394790 70.578765 5.569878 0.429564 -29.487071 1.412258 17.810967 58.995714 1.377150 8.232638 -23.115196 0.000000 -0.000000 0.000000 2.944538 -2.412620 0.057916 -3.844087 -9.624774 38.523147 3.280711 -2.952091 -25.739854 0.000000 -0.000000 0.000000 3.491803 1.045740 32.847188 0.222614 -4.081753 7.889140 2.338893 -0.674283 -1.362718 -6.176613 0.071941 18.845848 2.434509 18.013219 -7.603790 -29.231034 -0.193470 9.568592 -66.429992 23.976221 6.181945 -45.007289 -49.057086 80.731611 -34.926784 -23.032640 19.153821 15.507100 4.707514 16.656541 65.036470 -23.232487 4.198571 40.002173 60.953434 72.198910 37.474261 19.096577 19.471173 
-0.401049 0.368745 0.952718 14.553393 6.796232 71.084801 5.920219 5.658148 -26.624239 -0.412670 20.900121 33.165935 1.819692 9.934814 -22.436680 0.000000 -0.000000 0.000000 3.330739 -0.646722 -5.369074 -4.460265 -12.556734 46.834706 1.995010 -4.361132 -27.822790 0.000000 -0.000000 0.000000 5.918906 -2.111532 35.686628 -0.534095 -2.645230 8.827453 1.679043 -0.580329 -2.374901 -7.271005 -0.644403 19.261616 1.088372 17.455461 -9.971410 -30.023074 -1.408506 10.010855 -67.671710 23.543338 5.251573 -44.046030 -49.835718 81.963340 -35.694599 -20.164555 22.347672 14.518408 6.081015 17.268917 66.205603 -23.184924 2.085926 41.770206 61.878102 74.918204 39.165508 19.036984 22.986295 
-0.402679 0.380572 0.922122 16.124727 8.580193 70.995481 6.049519 10.128133 -24.534190 -2.007022 22.554230 8.693474 1.015263 11.622286 -19.762386 0.000000 -0.000000 0.000000 3.614881 -0.095515 -10.234473 -5.473918 -14.911185 55.426032 1.051954 -5.510392 -29.670124 0.000000 -0.000000 0.000000 7.806875 -5.599383 39.078328 -1.492334 -1.320215 9.714219 1.703940 -0.363392 -2.318683 -9.812788 -0.985212 18.883887 0.873752 17.522616 -11.903003 -30.231677 -3.389474 9.213036 -69.596512 23.743146 4.769804 -42.629543 -50.702407 81.383297 -35.551616 -18.300873 24.044402 13.318536 7.985912 17.082527 67.520875 -23.209459 0.500813 43.043104 62.722688 76.185363 39.613876 18.343687 25.527102 
-0.408384 0.388211 0.893155 18.762282 10.210921 70.211794 7.041579 13.988159 -26.601809 -1.343522 23.085083 -2.103118 -0.640520 10.251272 -18.042663 0.000000 -0.000000 0.000000 4.571055 -1.518097 -13.295693 -8.500607 -16.180267 63.054610 -0.222079 -6.093722 -31.760121 0.000000 -0.000000 0.000000 8.408285 -7.589707 43.078430 -1.694651 -1.396878 10.821967 2.354480 -0.267306 -2.291869 -11.209643 -0.639778 17.794481 0.877262 16.370842 -13.189043 -30.101998 -4.654452 8.487871 -71.308862 23.454388 4.282182 -40.741862 -50.848728 80.446096 -35.593247 -16.832062 25.385202 13.420082 9.190480 17.070944 68.357167 -23.030280 -0.772316 42.448695 63.229007 75.926061 39.304027 18.130038 27.241750 
-0.414187 0.394168 0.867686 20.209955 10.321214 69.326212 10.009034 16.453741 -29.004250 -1.088021 23.522905 -4.297588 -1.276821 9.114504 -17.627170 0.000000 -0.000000 0.000000 5.070627 -0.725963 -15.825321 -10.798393 -15.928067 69.205533 -0.950225 -8.193594 -33.520765 0.000000 -0.000000 0.000000 7.223922 -7.922370 47.028090 -1.762166 -1.033838 12.375413 2.615538 -0.239762 -3.087977 -12.207811 -0.328579 17.236992 0.903895 14.862320 -14.418332 -29.973967 -5.560953 8.671675 -72.171309 22.769915 3.610661 -39.541393 -50.867676 80.160634 -35.699848 -16.835040 24.040734 14.314850 10.453635 17.513468 69.451839 -22.475872 -1.704090 39.531262 63.433302 73.481820 40.242998 19.014873 27.868217 
-0.415810 0.398191 0.846743 22.176128 9.644922 68.462831 12.467084 18.370263 -29.712915 -1.304078 23.818269 -4.744760 -1.329418 8.405012 -17.710600 0.000000 -0.000000 0.000000 4.331858 0.019308 -17.533644 -12.244349 -15.274482 74.036042 -1.235847 -10.588374 -34.787239 0.000000 -0.000000 0.000000 5.969457 -8.345427 50.039139 -1.930982 -1.144678 13.590151 2.404038 -0.384488 -3.718468 -13.709952 -0.237059 17.458865 0.817025 13.687622 -15.399152 -29.936900 -6.564114 9.244911 -72.576064 21.936681 2.794118 -38.742104 -50.463569 79.846055 -35.524145 -17.989268 21.598907 14.899439 11.627086 17.916769 70.885733 -21.826493 -2.453759 36.880231 62.891701 70.627874 39.362453 19.503531 26.434775 
-0.412451 0.401276 0.830301 25.355931 8.841627 67.881886 14.259563 18.825071 -29.423118 -1.186961 23.126422 -4.386343 -1.225583 7.858119 -17.838543 0.000000 -0.000000 0.000000 3.024865 0.143434 -18.501904 -13.399610 -14.323948 77.527933 -1.430984 -13.354019 -35.575858 0.000000 -0.000000 0.000000 5.157094 -9.071708 51.764969 -1.669868 -1.731282 13.869752 2.354384 -0.676299 -3.731634 -15.333655 -0.818154 18.325752 0.782022 12.711862 -16.071246 -30.156416 -7.054663 10.034753 -72.770216 21.010683 2.247630 -38.798334 -50.007312 80.443773 -34.981894 -18.277539 19.732854 15.132723 12.016072 18.177082 71.237567 -22.015576 -2.736841 37.073936 62.614701 69.658263 35.900332 18.812400 23.014730 
-0.406170 0.403790 0.818898 29.297149 8.044542 67.410794 15.976420 17.839269 -28.473810 -1.022016 21.121429 -2.633346 -0.761668 8.360404 -17.981960 0.000000 -0.000000 0.000000 1.727371 0.628143 -18.804752 -14.240563 -13.390309 79.896719 -1.659963 -16.889935 -35.644061 0.000000 -0.000000 0.000000 4.349856 -9.574603 52.431258 -0.988341 -2.260177 13.780328 2.630993 -1.056234 -3.412477 -16.030094 -1.894056 19.156092 0.957434 11.987495 -16.267129 -30.396124 -6.989884 10.880940 -72.753778 19.975329 2.334782 -39.093448 -49.359436 80.902958 -34.355306 -18.102566 17.453657 15.213079 11.866680 18.196967 70.462191 -22.478338 -2.182580 38.354787 62.590695 69.574448 33.429480 18.104294 19.323324 
-0.397311 0.406504 0.812591 33.458661 7.499975 67.072383 16.866870 17.060259 -27.287887 -0.819926 19.861365 -0.928245 -0.057507 8.654760 -17.909239 0.000000 -0.000000 0.000000 0.576713 0.873995 -18.442372 -14.992314 -12.586185 81.099477 -2.269979 -19.997387 -34.995761 0.000000 -0.000000 0.000000 4.115015 -10.082884 52.174800 -0.415184 -2.673033 13.694857 2.867317 -1.348345 -3.130396 -16.369292 -3.301933 19.624823 1.294440 11.501831 -15.759680 -30.446549 -7.130781 11.669438 -72.916573 18.906271 2.440363 -38.658733 -48.513401 79.987679 -34.603995 -18.667130 15.438299 15.032030 12.061802 18.218154 70.177009 -22.719320 -1.644456 38.304779 62.547245 68.596019 33.233032 18.142655 17.495220 
-0.386295 0.409869 0.810788 37.507403 7.158899 66.898276 17.558957 16.442315 -26.352101 -0.455735 18.465116 1.588139 0.474079 8.358393 -16.922973 0.000000 -0.000000 0.000000 -0.568777 0.610309 -17.519705 -15.552988 -11.909894 81.284259 -3.073494 -22.354069 -33.904545 0.000000 -0.000000 0.000000 4.032485 -10.266442 51.380985 0.194103 -2.878707 13.670843 3.233490 -1.525757 -2.870002 -16.816892 -5.244823 19.781609 1.608984 10.940969 -14.928280 -30.293501 -7.058563 12.144169 -73.103988 18.116250 2.379780 -38.284864 -48.055421 79.822857 -35.881083 -18.261708 15.133303 14.638382 12.494054 17.816150 70.427119 -22.731047 -1.796472 36.680860 62.873278 65.063194 38.490018 18.955761 15.458836 
-0.373501 0.413885 0.813157 41.345783 6.982648 66.981480 18.989764 14.910184 -26.501275 0.174240 16.749641 7.981072 0.936312 8.199934 -14.644808 0.000000 -0.000000 0.000000 -1.931806 0.028682 -16.203382 -15.872740 -11.705987 80.671131 -3.841553 -23.777903 -32.697088 0.000000 -0.000000 0.000000 3.867692 -9.887574 50.457044 0.931709 -3.184669 13.569958 3.555784 -1.589925 -2.746852 -16.425964 -6.653593 19.913961 2.035085 9.913064 -14.350158 -30.031070 -6.699193 12.811667 -72.981786 17.259979 2.284866 -38.527785 -47.941778 80.639234 -36.628458 -17.705353 14.727321 14.870871 12.335273 17.491197 69.894057 -22.637722 -1.574430 36.562195 62.839054 65.391649 39.798708 19.754365 17.468868 
